<?xml version="1.0" encoding="utf-8"?>
<!-- Generator: Adobe Illustrator 23.0.0, SVG Export Plug-In . SVG Version: 6.00 Build 0)  -->
<svg version="1.1" id="Laag_1" xmlns="http://www.w3.org/2000/svg" xmlns:xlink="http://www.w3.org/1999/xlink" x="0px" y="0px"
	 viewBox="0 0 178.9 22.7" style="enable-background:new 0 0 178.9 22.7;" xml:space="preserve">
<style type="text/css">
	.st0{fill:#FFFFFF;}
</style>
<title>logo</title>
<path class="st0" d="M5.3,0.6C5.2,0.6,5.1,0.7,5,0.9C5,1.1,5,1.3,5,1.6V8C5,8.3,5,8.5,5,8.7C5.1,8.9,5.2,9,5.3,9
	c0.2,0.1,0.4,0.1,0.6,0.1v0.3c-0.5,0-1.1,0-2,0s-1.6,0-2,0V9.1c0.2,0,0.4,0,0.6-0.1C2.6,9,2.7,8.9,2.8,8.7C2.8,8.5,2.9,8.3,2.8,8
	V1.6c0-0.2,0-0.5-0.1-0.7c0-0.1-0.1-0.2-0.3-0.3C2.3,0.5,2.1,0.5,1.9,0.5V0.2c0.4,0,1.1,0,2,0s1.5,0,2,0v0.3
	C5.7,0.5,5.5,0.5,5.3,0.6z"/>
<path class="st0" d="M6.7,2.4c0-0.6,0-1.3-0.1-2.2c0.8,0,2.1,0,4,0s3.2,0,4,0c-0.1,0.9-0.1,1.6-0.1,2.2c0,0.3,0,0.7,0,1h-0.3
	c-0.1-0.6-0.3-1.2-0.5-1.7c-0.2-0.4-0.4-0.7-0.8-0.9c-0.3-0.2-0.7-0.3-1-0.3h-0.3v7.4c0,0.3,0,0.5,0.1,0.8c0.1,0.2,0.2,0.3,0.4,0.3
	c0.3,0.1,0.6,0.1,0.9,0.1v0.3c-1.1,0-1.9,0-2.5,0s-1.3,0-2.4,0V9.2c0.3,0,0.6,0,0.9-0.1c0.2,0,0.3-0.2,0.4-0.3
	c0.1-0.3,0.1-0.5,0.1-0.8V0.5H9.2c-0.4,0-0.7,0.1-1.1,0.3C7.8,1,7.5,1.3,7.4,1.7C7.1,2.2,7,2.8,6.8,3.4H6.6C6.6,3.1,6.6,2.7,6.7,2.4
	z"/>
<path class="st0" d="M16.7,2.9C16.9,2.7,17,2.5,17,2.3c0-0.1,0-0.2,0-0.3c0-0.1,0-0.2,0-0.2C16.9,1.9,16.6,2,16.3,2
	c-0.3,0-0.5-0.1-0.7-0.3c-0.2-0.2-0.3-0.5-0.3-0.7c0-0.3,0.1-0.5,0.3-0.7C15.8,0.1,16,0,16.3,0c0.4,0,0.7,0.1,0.9,0.4
	c0.1,0.2,0.2,0.3,0.2,0.5c0.1,0.2,0.1,0.4,0.1,0.6c0,0.9-0.5,1.7-1.4,2.1l-0.1-0.2C16.3,3.3,16.5,3.1,16.7,2.9z"/>
<path class="st0" d="M19.7,8.3c0.4,0.6,1,1,1.7,0.9c0.3,0,0.6-0.1,0.8-0.2c0.2-0.1,0.4-0.3,0.6-0.5C22.9,8.4,23,8.1,23,7.8
	c0-0.3-0.1-0.6-0.2-0.9c-0.2-0.3-0.4-0.5-0.6-0.7c-0.3-0.3-0.7-0.5-1.1-0.8c-0.5-0.3-0.9-0.6-1.2-0.9c-0.3-0.2-0.6-0.5-0.8-0.9
	c-0.2-0.4-0.3-0.8-0.3-1.2c0-0.5,0.1-0.9,0.4-1.3c0.3-0.4,0.6-0.6,1.1-0.8c0.5-0.2,1-0.3,1.5-0.3c0.3,0,0.5,0,0.8,0.1
	c0.2,0,0.4,0.1,0.6,0.2c0.2,0.1,0.3,0.2,0.5,0.3c0.1,0.1,0.3,0.2,0.4,0.2c0.1,0,0.2-0.1,0.2-0.1c0.1-0.1,0.1-0.3,0.1-0.4h0.3
	c0,0.6-0.1,1.6-0.1,3h-0.3c0-0.5-0.1-0.9-0.3-1.3c-0.2-0.4-0.4-0.7-0.8-1c-0.3-0.3-0.7-0.4-1.1-0.4c-0.3,0-0.5,0-0.7,0.2
	C21,0.7,20.9,0.8,20.8,1c-0.1,0.2-0.2,0.5-0.2,0.7c0,0.4,0.1,0.8,0.4,1.1c0.3,0.3,0.6,0.6,1,0.8l0.8,0.6c0.4,0.3,0.8,0.6,1.2,0.9
	c0.3,0.2,0.5,0.5,0.7,0.9C24.9,6.3,25,6.7,25,7.1c0,0.5-0.1,1-0.4,1.4c-0.3,0.4-0.7,0.7-1.2,0.9c-0.5,0.2-1.1,0.3-1.6,0.3
	c-0.4,0-0.8,0-1.2-0.1c-0.3-0.1-0.6-0.2-0.9-0.4C19.6,9.1,19.4,9,19.2,9c-0.1,0-0.2,0.1-0.2,0.1C19,9.3,19,9.4,19,9.6h-0.3
	c0-0.5,0-1.7,0-3.5H19C19,6.9,19.3,7.6,19.7,8.3z"/>
<path class="st0" d="M36.1,8.9c0.1,0.1,0.3,0.2,0.4,0.2v0.3c-0.5,0-1.2,0-2,0s-1.5,0-2,0V9.1c0.2,0,0.5,0,0.7-0.1
	c0.1-0.1,0.2-0.2,0.2-0.4c0-0.2-0.1-0.4-0.2-0.6l-0.8-2.1h-2.8l-0.3,0.9c-0.2,0.5-0.3,1-0.4,1.5c0,0.3,0.1,0.5,0.3,0.7
	c0.3,0.1,0.6,0.2,0.9,0.2v0.3c-0.6,0-1.1,0-1.6,0c-0.3,0-0.7,0-1,0V9.2c0.4-0.1,0.8-0.5,1.1-1.4l3-7.6h0.5h0.5l3.1,8.1
	C35.8,8.5,35.9,8.8,36.1,8.9z M31.2,2.1l-1.3,3.5h2.6L31.2,2.1z"/>
<path class="st0" d="M39.9,0.6c-0.1,0.1-0.2,0.2-0.3,0.3c-0.1,0.2-0.1,0.5-0.1,0.7v6.6c0,0.2,0,0.4,0.1,0.6c0,0.1,0.1,0.2,0.2,0.2
	c0.2,0.1,0.4,0.1,0.5,0.1H41c0.4,0,0.8-0.1,1.1-0.4c0.3-0.3,0.6-0.6,0.8-1c0.2-0.5,0.4-1,0.5-1.5h0.3c0,0.3,0,0.7,0,1.1
	c0,0.7,0,1.4,0.1,2.1c-0.6,0-1.6,0-3,0c-1.9,0-3.3,0-4.2,0V9.2c0.2,0,0.4,0,0.6-0.1c0.1-0.1,0.2-0.2,0.3-0.3
	c0.1-0.2,0.1-0.5,0.1-0.7V1.6c0-0.2,0-0.5-0.1-0.7c0-0.1-0.1-0.2-0.3-0.3c-0.2-0.1-0.4-0.1-0.6-0.1V0.2c0.4,0,1.1,0,2.1,0s1.6,0,2,0
	v0.3C40.4,0.5,40.2,0.5,39.9,0.6z"/>
<path class="st0" d="M47.8,0.6c-0.1,0-0.2,0.2-0.3,0.3c-0.1,0.2-0.1,0.5-0.1,0.7v6.6c0,0.2,0,0.4,0.1,0.6c0,0.1,0.1,0.2,0.2,0.2
	c0.2,0.1,0.4,0.1,0.5,0.1h0.6c0.4,0,0.8-0.1,1.1-0.4c0.4-0.3,0.6-0.6,0.8-1c0.2-0.5,0.4-1,0.5-1.5h0.3c0,0.3,0,0.7,0,1.1
	c0,0.7,0,1.4,0.1,2.1c-0.6,0-1.6,0-3,0c-1.9,0-3.3,0-4.2,0V9.2c0.2,0,0.4,0,0.6-0.1c0.1-0.1,0.2-0.2,0.3-0.3
	c0.1-0.2,0.1-0.5,0.1-0.7V1.6c0-0.2,0-0.5-0.1-0.7c0-0.1-0.1-0.3-0.3-0.3c-0.2-0.1-0.4-0.1-0.6-0.1V0.2c0.4,0,1.1,0,2,0s1.6,0,2,0
	v0.3C48.2,0.5,48,0.5,47.8,0.6z"/>
<path class="st0" d="M9.5,20.9c0.1,0.1,0.3,0.2,0.5,0.2v0.3c-0.6,0-1.3,0-2.2,0s-1.7,0-2.2,0v-0.3c0.3,0,0.5,0,0.8-0.1
	c0.2-0.1,0.3-0.2,0.2-0.4c0-0.2-0.1-0.5-0.2-0.7l-0.9-2.4H2.4l-0.4,1c-0.2,0.5-0.4,1.1-0.4,1.6c0,0.3,0.1,0.6,0.3,0.8
	c0.3,0.2,0.7,0.3,1,0.2v0.3c-0.7,0-1.2,0-1.8,0c-0.4,0-0.7,0-1.1,0v-0.3c0.5-0.1,0.9-0.6,1.3-1.5l3.3-8.5c0.2,0,0.3,0,0.5,0
	c0.2,0,0.3,0,0.5,0l3.5,9.1C9.2,20.4,9.3,20.7,9.5,20.9z M4,13.3l-1.5,4h2.9L4,13.3z"/>
<path class="st0" d="M17.6,16.5c0.5,0.2,0.9,0.5,1.2,0.9c0.2,0.3,0.4,0.8,0.4,1.2c0,0.5-0.2,1.1-0.5,1.5c-0.4,0.5-0.8,0.8-1.4,1
	c-0.7,0.2-1.4,0.3-2.1,0.3h-1.1c-0.5,0-1,0-1.5,0c-1,0-1.7,0-2.2,0v-0.3c0.2,0,0.5,0,0.7-0.1c0.1-0.1,0.3-0.2,0.3-0.3
	c0.1-0.3,0.1-0.5,0.1-0.8v-7.3c0-0.3,0-0.5-0.1-0.8c0-0.2-0.2-0.3-0.3-0.3c-0.2-0.1-0.5-0.1-0.7-0.1v-0.3c0.5,0,1.2,0,2.2,0h2.3
	c0.7,0,1.4,0.1,2,0.3c0.5,0.1,0.9,0.4,1.2,0.8c0.3,0.3,0.4,0.8,0.4,1.2c0,0.4-0.1,0.7-0.3,1c-0.3,0.4-0.6,0.7-1,0.9
	c-0.5,0.3-1,0.5-1.6,0.6l0,0C16.2,16,16.9,16.2,17.6,16.5z M15.6,15.3c0.3-0.5,0.4-1.1,0.4-1.7c0-0.6-0.1-1.1-0.3-1.6
	c-0.2-0.4-0.6-0.6-1.1-0.5c-0.2,0-0.4,0-0.6,0.1c-0.1,0.1-0.2,0.2-0.2,0.4c-0.1,0.3-0.1,0.5-0.1,0.8v3.3h0.6
	C14.8,16,15.4,15.7,15.6,15.3z M13.8,20.6c0,0.1,0.1,0.3,0.3,0.3c0.2,0.1,0.4,0.1,0.6,0.1c1.3,0,2-0.8,2-2.5c0-0.6-0.2-1.2-0.6-1.7
	c-0.5-0.4-1.2-0.7-1.8-0.6h-0.6v3.7C13.7,20.1,13.7,20.4,13.8,20.6L13.8,20.6z"/>
<path class="st0" d="M28.2,11.6c0.8,0.4,1.4,1,1.8,1.8c0.4,0.9,0.7,1.8,0.6,2.8c0,1-0.2,2-0.7,2.8c-0.4,0.8-1,1.5-1.8,1.9
	c-0.8,0.5-1.7,0.7-2.7,0.7c-0.9,0-1.9-0.2-2.7-0.6c-0.8-0.4-1.4-1-1.8-1.8c-0.4-0.9-0.7-1.8-0.6-2.8c0-1,0.2-2,0.7-2.8
	c0.4-0.8,1-1.5,1.8-1.9c0.8-0.5,1.7-0.7,2.7-0.7C26.5,10.9,27.4,11.1,28.2,11.6z M24.1,11.8c-0.5,0.5-0.8,1.1-0.9,1.8
	c-0.2,0.9-0.4,1.7-0.4,2.6c0,0.9,0.1,1.8,0.4,2.7c0.2,0.7,0.5,1.3,1,1.8c0.4,0.4,0.9,0.6,1.4,0.6c0.5,0,1.1-0.2,1.4-0.6
	c0.4-0.5,0.8-1.1,0.9-1.8c0.2-0.8,0.3-1.7,0.3-2.6c0-0.9-0.1-1.8-0.4-2.7c-0.2-0.7-0.5-1.3-1-1.8c-0.4-0.4-0.9-0.6-1.4-0.6
	C25,11.2,24.5,11.5,24.1,11.8z"/>
<path class="st0" d="M40.5,11.7c-0.2,0.2-0.3,0.4-0.3,0.6C40.1,12.6,40,13,40,13.4v3.9c0.1,1-0.1,2.1-0.6,3c-0.3,0.4-0.7,0.8-1.1,1
	c-0.6,0.2-1.2,0.4-1.8,0.4c-0.9,0.1-1.8-0.2-2.6-0.7c-0.3-0.2-0.5-0.5-0.7-0.9c-0.2-0.4-0.3-0.8-0.3-1.1c-0.1-0.5-0.1-1.1-0.1-1.6
	v-4.6c0-0.3,0-0.5-0.1-0.8c0-0.2-0.2-0.3-0.3-0.3c-0.2-0.1-0.5-0.1-0.7-0.1v-0.3c0.5,0,1.2,0,2.3,0s1.8,0,2.3,0v0.3
	c-0.3,0-0.5,0-0.8,0.1c-0.2,0.1-0.3,0.2-0.3,0.3c-0.1,0.3-0.1,0.5-0.1,0.8v5.5c0,0.6,0,1.1,0.2,1.7c0.1,0.4,0.3,0.7,0.6,1
	c0.4,0.2,0.8,0.4,1.2,0.3c0.8,0.1,1.6-0.3,2-1c0.4-0.9,0.7-1.8,0.6-2.8v-3.8c0-0.4,0-0.8-0.1-1.2c0-0.2-0.2-0.5-0.4-0.6
	c-0.3-0.2-0.6-0.2-0.9-0.2v-0.3c0.4,0,0.9,0,1.6,0c0.5,0,1,0,1.3,0v0.3C40.9,11.5,40.6,11.5,40.5,11.7z"/>
<path class="st0" d="M42.1,13.6c0-0.7,0-1.5-0.1-2.5c0.9,0,2.4,0,4.5,0c2.1,0,3.6,0,4.5,0c-0.1,1-0.1,1.8-0.1,2.5
	c0,0.4,0,0.8,0.1,1.1h-0.3c-0.1-0.7-0.3-1.3-0.6-1.9c-0.2-0.4-0.5-0.7-0.8-1c-0.4-0.2-0.8-0.3-1.2-0.3h-0.3v8.3c0,0.3,0,0.6,0.1,0.9
	c0.1,0.2,0.2,0.3,0.4,0.4c0.3,0.1,0.7,0.1,1,0.1v0.3c-1.2,0-2.1,0-2.8,0s-1.5,0-2.7,0v-0.3c0.3,0,0.7,0,1-0.1
	c0.2-0.1,0.4-0.2,0.4-0.4c0.1-0.3,0.1-0.6,0.1-0.9v-8.3H45c-0.4,0-0.8,0.1-1.2,0.3c-0.4,0.3-0.7,0.6-0.8,1c-0.3,0.6-0.5,1.3-0.6,1.9
	h-0.3C42.1,14.3,42.1,14,42.1,13.6z"/>
<path class="st0" d="M54.3,0.5h6.9L67,12.6l5.8-12.1h6.9v21.8h-5.6v-13l-5,10.8h-4.2l-5-10.8v13h-5.6V0.5z"/>
<path class="st0" d="M99.8,1.5c1.8,0.9,3.2,2.3,4.2,4c1,1.7,1.6,3.7,1.5,5.7c0,2-0.5,4-1.5,5.8c-1,1.7-2.5,3.1-4.2,4.1
	c-3.8,2-8.3,2-12.1,0c-1.8-0.9-3.2-2.3-4.2-4.1c-1-1.8-1.6-3.8-1.5-5.8c0-2,0.5-4,1.5-5.8c1-1.7,2.5-3.1,4.2-4
	C91.4-0.4,95.9-0.4,99.8,1.5L99.8,1.5z M91.1,6.3c-0.8,0.5-1.5,1.3-2,2.1c-0.5,0.9-0.7,2-0.7,3c0,1,0.2,2.1,0.7,3
	c0.5,0.9,1.2,1.6,2,2.2c0.8,0.5,1.7,0.8,2.7,0.8c0.9,0,1.8-0.3,2.6-0.8c0.8-0.5,1.4-1.3,1.9-2.1c0.5-0.9,0.7-2,0.7-3
	c0-1-0.2-2.1-0.7-3c-0.4-0.9-1-1.6-1.8-2.2c-0.8-0.5-1.7-0.8-2.6-0.8C92.8,5.5,91.9,5.8,91.1,6.3z"/>
<path class="st0" d="M105.4,0.5h6.9l5,15l5-15h6.6l-8.5,21.8h-6.7L105.4,0.5z"/>
<path class="st0" d="M130.2,0.5h6.4v21.8h-6.4V0.5z"/>
<path class="st0" d="M140,0.5h17.8v5h-11.3v3.4h10.3v5h-10.3v3.4h11.7v5H140V0.5z"/>
<path class="st0" d="M172.7,5.8c-1.1-0.4-2.2-0.7-3.4-0.7c-0.5,0-0.9,0.1-1.3,0.3c-0.3,0.2-0.5,0.6-0.5,0.9c0,0.6,0.4,1.1,0.9,1.4
	c0.9,0.4,1.9,0.8,2.9,1c1.3,0.4,2.5,0.8,3.8,1.4c1,0.5,1.9,1.1,2.6,2c0.8,1,1.2,2.3,1.1,3.6c0,1.4-0.4,2.7-1.2,3.8
	c-0.8,1.1-2,1.9-3.2,2.3c-1.5,0.5-3,0.8-4.5,0.8c-1.9,0-3.8-0.3-5.6-1c-1.8-0.6-3.4-1.4-4.9-2.6l2.4-4.9c1.2,1,2.5,1.8,4,2.4
	c1.3,0.6,2.7,0.9,4.1,1c0.6,0,1.1-0.1,1.6-0.4c0.4-0.2,0.6-0.7,0.6-1.1c0-0.6-0.4-1.2-1-1.4c-1-0.4-2-0.8-3-1
	c-1.3-0.3-2.5-0.7-3.8-1.2c-1-0.4-1.9-1.1-2.6-2c-0.8-1-1.1-2.2-1.1-3.5c0-1.3,0.4-2.6,1.2-3.6c0.8-1.1,1.9-1.9,3.1-2.4
	c1.5-0.6,3.1-0.9,4.7-0.8c1.6,0,3.3,0.2,4.9,0.7c1.5,0.4,2.9,1,4.2,1.8l-2.4,5C175.3,6.8,174,6.2,172.7,5.8z"/>
</svg>
