<svg xmlns="http://www.w3.org/2000/svg" viewBox="0 0 178.88 22.66"><defs><style>.a{fill:#3c3c3b;}</style></defs><title>logo</title><path class="a" d="M21.18,10.29a.45.45,0,0,0-.27.3,2.92,2.92,0,0,0-.07.71v6.45a2.86,2.86,0,0,0,.07.71.49.49,0,0,0,.27.31,2.41,2.41,0,0,0,.63.1v.26c-.46,0-1.11,0-2,0s-1.61,0-2.05,0v-.26a2.41,2.41,0,0,0,.63-.1.49.49,0,0,0,.27-.31,2.45,2.45,0,0,0,.07-.71V11.3a2.49,2.49,0,0,0-.07-.71.45.45,0,0,0-.27-.3,2,2,0,0,0-.63-.11V9.92c.44,0,1.12,0,2.05,0s1.5,0,2,0v.26A2,2,0,0,0,21.18,10.29Z" transform="translate(-15.88 -9.72)"/><path class="a" d="M22.54,12.13c0-.59,0-1.33-.1-2.21.79,0,2.13,0,4,0s3.22,0,4,0c-.06.88-.09,1.62-.09,2.21a9.83,9.83,0,0,0,0,1h-.29a7.25,7.25,0,0,0-.53-1.71,2.12,2.12,0,0,0-.75-.91,1.87,1.87,0,0,0-1.05-.28h-.3v7.43a2,2,0,0,0,.11.79.59.59,0,0,0,.39.33,3.5,3.5,0,0,0,.89.1v.26c-1.09,0-1.92,0-2.47,0s-1.34,0-2.38,0v-.26a3.56,3.56,0,0,0,.89-.1.59.59,0,0,0,.39-.33,2.18,2.18,0,0,0,.11-.79V10.22h-.29a1.88,1.88,0,0,0-1.06.28,2.15,2.15,0,0,0-.75.9,7.68,7.68,0,0,0-.53,1.72h-.3A9.61,9.61,0,0,0,22.54,12.13Z" transform="translate(-15.88 -9.72)"/><path class="a" d="M32.59,12.65a1.4,1.4,0,0,0,.34-.66,1.89,1.89,0,0,0,0-.31.78.78,0,0,0,0-.24,1,1,0,0,1-.75.31,1.09,1.09,0,0,1-.75-.26,1,1,0,0,1-.28-.74.92.92,0,0,1,.3-.72,1.05,1.05,0,0,1,.76-.28,1,1,0,0,1,.93.45,1.57,1.57,0,0,1,.21.49,2.33,2.33,0,0,1,.08.59,2.24,2.24,0,0,1-1.37,2.08l-.12-.23A1.81,1.81,0,0,0,32.59,12.65Z" transform="translate(-15.88 -9.72)"/><path class="a" d="M35.54,18.06a1.87,1.87,0,0,0,1.72.91,2.19,2.19,0,0,0,.83-.16,1.3,1.3,0,0,0,.57-.49,1.5,1.5,0,0,0,.22-.8,1.78,1.78,0,0,0-.24-.92,3.11,3.11,0,0,0-.64-.73,12.22,12.22,0,0,0-1.08-.77c-.52-.34-.94-.64-1.25-.89a3.38,3.38,0,0,1-.76-.88,2.38,2.38,0,0,1-.3-1.2,2.13,2.13,0,0,1,.4-1.32,2.43,2.43,0,0,1,1.06-.8,4,4,0,0,1,1.45-.26,4.73,4.73,0,0,1,.82.07,3.08,3.08,0,0,1,.58.18,4.88,4.88,0,0,1,.5.26,1.09,1.09,0,0,0,.44.18.19.19,0,0,0,.18-.13,1.24,1.24,0,0,0,.1-.44h.3q-.06.87-.06,3h-.3a4,4,0,0,0-.31-1.34,2.5,2.5,0,0,0-.76-1,1.71,1.71,0,0,0-1.14-.4,1.64,1.64,0,0,0-.74.16,1.17,1.17,0,0,0-.5.46,1.25,1.25,0,0,0-.19.7,1.49,1.49,0,0,0,.39,1.06,7.12,7.12,0,0,0,1,.84l.84.56a12.5,12.5,0,0,1,1.2.89,3.05,3.05,0,0,1,.73.87,2.43,2.43,0,0,1,.28,1.16,2.34,2.34,0,0,1-.43,1.41,2.62,2.62,0,0,1-1.17.85,4.42,4.42,0,0,1-1.63.28,4.61,4.61,0,0,1-1.21-.13,4,4,0,0,1-.88-.35.92.92,0,0,0-.44-.18.19.19,0,0,0-.18.13,1.45,1.45,0,0,0-.11.44h-.29c0-.55.05-1.72.05-3.51h.3A4.91,4.91,0,0,0,35.54,18.06Z" transform="translate(-15.88 -9.72)"/><path class="a" d="M52,18.66a.75.75,0,0,0,.44.21v.26c-.52,0-1.18,0-2,0s-1.54,0-2,0v-.26a2.34,2.34,0,0,0,.7-.12.37.37,0,0,0,.21-.36,1.81,1.81,0,0,0-.16-.61l-.78-2.14H45.64l-.34.9A4.24,4.24,0,0,0,44.94,18a.75.75,0,0,0,.29.67,1.72,1.72,0,0,0,.86.21v.26c-.58,0-1.12,0-1.61,0a9.09,9.09,0,0,0-1,0v-.26c.43-.07.8-.53,1.12-1.37l3-7.6.45,0,.45,0L51.63,18A1.69,1.69,0,0,0,52,18.66Zm-4.92-6.79-1.35,3.51h2.64Z" transform="translate(-15.88 -9.72)"/><path class="a" d="M55.82,10.29a.5.5,0,0,0-.3.3,2.49,2.49,0,0,0-.07.71v6.6a2.24,2.24,0,0,0,.06.61.37.37,0,0,0,.22.25,1.44,1.44,0,0,0,.53.07h.64A1.8,1.8,0,0,0,58,18.47a2.86,2.86,0,0,0,.83-1,5.21,5.21,0,0,0,.46-1.52h.29c0,.29,0,.68,0,1.14a19.32,19.32,0,0,0,.09,2.06c-.59,0-1.58,0-3,0-1.89,0-3.3,0-4.24,0v-.26a2.41,2.41,0,0,0,.63-.1.49.49,0,0,0,.27-.31,2.37,2.37,0,0,0,.08-.71V11.3a2.42,2.42,0,0,0-.08-.71.45.45,0,0,0-.27-.3,2,2,0,0,0-.63-.11V9.92c.44,0,1.12,0,2.06,0s1.56,0,2,0v.26A2.31,2.31,0,0,0,55.82,10.29Z" transform="translate(-15.88 -9.72)"/><path class="a" d="M63.63,10.29a.46.46,0,0,0-.29.3,2.12,2.12,0,0,0-.08.71v6.6a2.24,2.24,0,0,0,.06.61.36.36,0,0,0,.23.25,1.4,1.4,0,0,0,.53.07h.63a1.78,1.78,0,0,0,1.08-.36,2.76,2.76,0,0,0,.83-1,5.21,5.21,0,0,0,.46-1.52h.3c0,.29,0,.68,0,1.14a19.32,19.32,0,0,0,.09,2.06c-.59,0-1.58,0-3,0-1.89,0-3.3,0-4.23,0v-.26a2.4,2.4,0,0,0,.62-.1.44.44,0,0,0,.27-.31,2.37,2.37,0,0,0,.08-.71V11.3a2.42,2.42,0,0,0-.08-.71.41.41,0,0,0-.27-.3,2,2,0,0,0-.62-.11V9.92c.43,0,1.12,0,2.05,0s1.56,0,2,0v.26A2.31,2.31,0,0,0,63.63,10.29Z" transform="translate(-15.88 -9.72)"/><path class="a" d="M25.39,30.61a.82.82,0,0,0,.48.23v.29c-.58,0-1.31-.05-2.2-.05s-1.72,0-2.2.05v-.29a2.17,2.17,0,0,0,.78-.14.39.39,0,0,0,.24-.39,2.17,2.17,0,0,0-.18-.69l-.87-2.38H18.28l-.38,1a4.88,4.88,0,0,0-.39,1.61.83.83,0,0,0,.31.75,1.89,1.89,0,0,0,1,.24v.29c-.66,0-1.25-.05-1.8-.05a11.1,11.1,0,0,0-1.11.05v-.29c.48-.08.9-.59,1.25-1.52l3.31-8.49a3.94,3.94,0,0,0,.5,0,3.78,3.78,0,0,0,.5,0L25,29.91A2,2,0,0,0,25.39,30.61ZM19.9,23,18.4,27h2.94Z" transform="translate(-15.88 -9.72)"/><path class="a" d="M33.46,26.21a2.72,2.72,0,0,1,1.18.93A2.1,2.1,0,0,1,35,28.32a2.45,2.45,0,0,1-.48,1.53,3,3,0,0,1-1.38,1,6.47,6.47,0,0,1-2.14.32l-1.06,0c-.51,0-1,0-1.52,0-1,0-1.74,0-2.23.05v-.29a2.11,2.11,0,0,0,.7-.12.49.49,0,0,0,.3-.34,2.52,2.52,0,0,0,.08-.79V22.4a2.52,2.52,0,0,0-.08-.79.49.49,0,0,0-.3-.34,2.11,2.11,0,0,0-.7-.12v-.29c.49,0,1.22,0,2.2,0h2.27a5.91,5.91,0,0,1,2,.28,2.6,2.6,0,0,1,1.21.8,1.88,1.88,0,0,1,.41,1.2,2,2,0,0,1-.32,1.05,2.84,2.84,0,0,1-1,.92,4.75,4.75,0,0,1-1.62.57v0A6.38,6.38,0,0,1,33.46,26.21ZM31.52,25a3.3,3.3,0,0,0,.38-1.72,3,3,0,0,0-.34-1.62,1.18,1.18,0,0,0-1.08-.54,1.41,1.41,0,0,0-.58.1.54.54,0,0,0-.25.37,3,3,0,0,0-.07.78v3.28h.62A1.4,1.4,0,0,0,31.52,25Zm-1.87,5.33a.51.51,0,0,0,.28.34,1.76,1.76,0,0,0,.65.09c1.34,0,2-.84,2-2.54A2.39,2.39,0,0,0,32,26.52a2.46,2.46,0,0,0-1.83-.6h-.61v3.67A2.89,2.89,0,0,0,29.65,30.36Z" transform="translate(-15.88 -9.72)"/><path class="a" d="M44.1,21.28a4.28,4.28,0,0,1,1.79,1.81,5.81,5.81,0,0,1,.64,2.82,5.88,5.88,0,0,1-.66,2.83,4.66,4.66,0,0,1-1.82,1.91,5.11,5.11,0,0,1-2.66.68,5.65,5.65,0,0,1-2.69-.62,4.34,4.34,0,0,1-1.79-1.81,5.93,5.93,0,0,1-.63-2.82,5.88,5.88,0,0,1,.65-2.83,4.66,4.66,0,0,1,1.82-1.91,5.11,5.11,0,0,1,2.66-.68A5.56,5.56,0,0,1,44.1,21.28ZM40,21.57a4.25,4.25,0,0,0-.94,1.8A9.7,9.7,0,0,0,38.68,26a8.9,8.9,0,0,0,.37,2.66,4.4,4.4,0,0,0,1,1.77,2,2,0,0,0,1.4.62,1.85,1.85,0,0,0,1.41-.65,4.36,4.36,0,0,0,.93-1.8A9.7,9.7,0,0,0,44.12,26a8.64,8.64,0,0,0-.37-2.66,4.29,4.29,0,0,0-1-1.77,2,2,0,0,0-1.4-.62A1.83,1.83,0,0,0,40,21.57Z" transform="translate(-15.88 -9.72)"/><path class="a" d="M56.33,21.4A1,1,0,0,0,56,22a6,6,0,0,0-.08,1.11v3.85A6.24,6.24,0,0,1,55.35,30a2.69,2.69,0,0,1-1.13,1,4.31,4.31,0,0,1-1.82.35,4.15,4.15,0,0,1-2.61-.73,2.46,2.46,0,0,1-.7-.85,3.53,3.53,0,0,1-.34-1.15A12.34,12.34,0,0,1,48.66,27V22.4a2.52,2.52,0,0,0-.08-.79.49.49,0,0,0-.3-.34,2.18,2.18,0,0,0-.71-.12v-.29c.5,0,1.25,0,2.26,0s1.77,0,2.31,0v.29a2.44,2.44,0,0,0-.76.12.53.53,0,0,0-.33.34,2.52,2.52,0,0,0-.08.79v5.46a6.26,6.26,0,0,0,.18,1.66,1.77,1.77,0,0,0,.62,1,1.94,1.94,0,0,0,1.2.33,2.2,2.2,0,0,0,2-1,5.34,5.34,0,0,0,.6-2.78V23.24a5.5,5.5,0,0,0-.1-1.25.92.92,0,0,0-.4-.59,2.12,2.12,0,0,0-.91-.25v-.29c.36,0,.89,0,1.57,0,.53,0,.95,0,1.26,0v.29A1.39,1.39,0,0,0,56.33,21.4Z" transform="translate(-15.88 -9.72)"/><path class="a" d="M58,23.33c0-.67,0-1.49-.1-2.47.88,0,2.37,0,4.48,0s3.59,0,4.46,0c-.07,1-.1,1.8-.1,2.47,0,.41,0,.78.05,1.1h-.33a8.47,8.47,0,0,0-.59-1.92,2.46,2.46,0,0,0-.83-1,2.23,2.23,0,0,0-1.18-.31h-.34v8.29a2.36,2.36,0,0,0,.13.88.69.69,0,0,0,.44.37,3.74,3.74,0,0,0,1,.11v.29c-1.22,0-2.14-.05-2.76-.05s-1.49,0-2.65.05v-.29a3.74,3.74,0,0,0,1-.11.69.69,0,0,0,.44-.37,2.4,2.4,0,0,0,.12-.88V21.19h-.32a2.24,2.24,0,0,0-1.19.31,2.39,2.39,0,0,0-.83,1,8,8,0,0,0-.59,1.92h-.34A9.15,9.15,0,0,0,58,23.33Z" transform="translate(-15.88 -9.72)"/><path class="a" d="M70.17,10.22h6.92l5.82,12.06,5.8-12.06h6.91V32H90V19.05L85,29.81H80.81l-5-10.76V32H70.17Z" transform="translate(-15.88 -9.72)"/><path class="a" d="M115.63,11.27a10.76,10.76,0,0,1,4.25,4A11,11,0,0,1,121.42,21a11.21,11.21,0,0,1-1.54,5.81,10.86,10.86,0,0,1-4.25,4.06,13.25,13.25,0,0,1-12.13,0,10.87,10.87,0,0,1-4.23-4.06A11.12,11.12,0,0,1,97.73,21a10.88,10.88,0,0,1,1.54-5.75,10.77,10.77,0,0,1,4.23-4,13.33,13.33,0,0,1,12.13,0ZM107,16a5.68,5.68,0,0,0-2,2.13,6.21,6.21,0,0,0-.72,3,6.33,6.33,0,0,0,.72,3,5.77,5.77,0,0,0,2,2.16,4.84,4.84,0,0,0,2.65.79,4.67,4.67,0,0,0,2.59-.79,5.48,5.48,0,0,0,1.87-2.14,6.54,6.54,0,0,0,.68-3,6.42,6.42,0,0,0-.68-3A5.36,5.36,0,0,0,112.27,16a4.66,4.66,0,0,0-2.6-.77A4.9,4.9,0,0,0,107,16Z" transform="translate(-15.88 -9.72)"/><path class="a" d="M121.29,10.22h6.88l5,15,5-15h6.61L136.3,32h-6.7Z" transform="translate(-15.88 -9.72)"/><path class="a" d="M146.09,10.22h6.45V32h-6.45Z" transform="translate(-15.88 -9.72)"/><path class="a" d="M155.89,10.22h17.76v5H162.33v3.41h10.26v5H162.33V27H174v5H155.89Z" transform="translate(-15.88 -9.72)"/><path class="a" d="M188.56,15.49a10.89,10.89,0,0,0-3.41-.72,2.3,2.3,0,0,0-1.32.33,1.07,1.07,0,0,0-.48.94,1.48,1.48,0,0,0,.93,1.35,16.24,16.24,0,0,0,2.95,1A28.28,28.28,0,0,1,191,19.75a7,7,0,0,1,2.59,2,5.58,5.58,0,0,1,1.1,3.6,6.15,6.15,0,0,1-1.19,3.82,7.12,7.12,0,0,1-3.23,2.34,12.57,12.57,0,0,1-4.54.78,17.47,17.47,0,0,1-5.6-.95,15.8,15.8,0,0,1-4.85-2.58l2.42-4.9a14.37,14.37,0,0,0,4,2.4,11.12,11.12,0,0,0,4.08,1,2.86,2.86,0,0,0,1.64-.41,1.29,1.29,0,0,0,.59-1.14,1.5,1.5,0,0,0-1-1.38,16.26,16.26,0,0,0-3-1,27.82,27.82,0,0,1-3.76-1.22,6.78,6.78,0,0,1-2.57-2,5.41,5.41,0,0,1-1.08-3.51A6.18,6.18,0,0,1,177.8,13a7.14,7.14,0,0,1,3.15-2.4,12.29,12.29,0,0,1,4.73-.84,17.26,17.26,0,0,1,4.86.7,16,16,0,0,1,4.22,1.84l-2.39,5A20.43,20.43,0,0,0,188.56,15.49Z" transform="translate(-15.88 -9.72)"/></svg>